<?xml version="1.0" encoding="utf-8"?>

<svg xmlns="http://www.w3.org/2000/svg" xmlns:xlink="http://www.w3.org/1999/xlink">

  <symbol viewBox="0 0 34 30" id="icon-like">
    <g transform="translate(-150.000000, -213.000000)" fill="#ffffff">
      <path d="M167,242.6 L166.4,242.1 C153.5,231.6 150.1,227.9 150.1,222 C150.1,217.1 154.1,213.1 159,213.1 C163.1,213.1 165.4,215.4 167,217.2 C168.6,215.4 170.9,213.1 175,213.1 C179.9,213.1 183.9,217.1 183.9,222 C183.9,228 180.4,231.7 167.6,242.1 L167,242.6 L167,242.6 Z M159,214.9 C155.1,214.9 151.9,218.1 151.9,222 C151.9,227.1 155.1,230.6 167,240.2 C178.8,230.5 182.1,227.1 182.1,222 C182.1,218.1 178.9,214.9 175,214.9 C171.4,214.9 169.6,217 168.1,218.7 L167,220 L165.9,218.8 C164.4,217.1 162.6,214.9 159,214.9 L159,214.9 Z">
      </path>
    </g>
  </symbol>

  <symbol viewBox="0 0 34 30" id="icon-like-dark">
    <g transform="translate(-150.000000, -213.000000)" fill="#878a8d">
      <path d="M167,242.6 L166.4,242.1 C153.5,231.6 150.1,227.9 150.1,222 C150.1,217.1 154.1,213.1 159,213.1 C163.1,213.1 165.4,215.4 167,217.2 C168.6,215.4 170.9,213.1 175,213.1 C179.9,213.1 183.9,217.1 183.9,222 C183.9,228 180.4,231.7 167.6,242.1 L167,242.6 L167,242.6 Z M159,214.9 C155.1,214.9 151.9,218.1 151.9,222 C151.9,227.1 155.1,230.6 167,240.2 C178.8,230.5 182.1,227.1 182.1,222 C182.1,218.1 178.9,214.9 175,214.9 C171.4,214.9 169.6,217 168.1,218.7 L167,220 L165.9,218.8 C164.4,217.1 162.6,214.9 159,214.9 L159,214.9 Z">
      </path>
    </g>
  </symbol>

  <symbol viewBox="0 0 34 30" id="icon-like-pink" fill="#e2264d">
    <g>
      <path d="M17,29.628 L16.413,29.15 C3.553,18.676 0.07,14.989 0.07,9 C0.07,4.076 4.076,0.07 9,0.07 C13.115,0.07 15.441,2.407 17,4.165 C18.559,2.407 20.885,0.07 25,0.07 C29.924,0.07 33.93,4.076 33.93,9 C33.93,14.989 30.447,18.676 17.587,29.15 L17,29.628 L17,29.628 Z"></path>
    </g>
  </symbol>

  <symbol viewBox="0 0 50 50" id="icon-spinner" fill="#212427">
    <path d="M25 18c-.6 0-1-.4-1-1V9c0-.6.4-1 1-1s1 .4 1 1v8c0 .6-.4 1-1 1z"></path>
    <path opacity=".3" d="M25 42c-.6 0-1-.4-1-1v-8c0-.6.4-1 1-1s1 .4 1 1v8c0 .6-.4 1-1 1z"></path>
    <path opacity=".3" d="M29 19c-.2 0-.3 0-.5-.1-.4-.3-.6-.8-.3-1.3l4-6.9c.3-.4.8-.6 1.3-.3.4.3.6.8.3 1.3l-4 6.9c-.2.2-.5.4-.8.4z"></path>
    <path opacity=".3" d="M17 39.8c-.2 0-.3 0-.5-.1-.4-.3-.6-.8-.3-1.3l4-6.9c.3-.4.8-.6 1.3-.3.4.3.6.8.3 1.3l-4 6.9c-.2.2-.5.4-.8.4z"></path>
    <path opacity=".93" d="M21 19c-.3 0-.6-.2-.8-.5l-4-6.9c-.3-.4-.1-1 .3-1.3.4-.3 1-.1 1.3.3l4 6.9c.3.4.1 1-.3 1.3-.2.2-.3.2-.5.2z"></path>
    <path opacity=".3" d="M33 39.8c-.3 0-.6-.2-.8-.5l-4-6.9c-.3-.4-.1-1 .3-1.3.4-.3 1-.1 1.3.3l4 6.9c.3.4.1 1-.3 1.3-.2.1-.3.2-.5.2z"></path>
    <path opacity=".65" d="M17 26H9c-.6 0-1-.4-1-1s.4-1 1-1h8c.6 0 1 .4 1 1s-.4 1-1 1z"></path>
    <path opacity=".3" d="M41 26h-8c-.6 0-1-.4-1-1s.4-1 1-1h8c.6 0 1 .4 1 1s-.4 1-1 1z"></path>
    <path opacity=".86" d="M18.1 21.9c-.2 0-.3 0-.5-.1l-6.9-4c-.4-.3-.6-.8-.3-1.3.3-.4.8-.6 1.3-.3l6.9 4c.4.3.6.8.3 1.3-.2.3-.5.4-.8.4z"></path>
    <path opacity=".3" d="M38.9 33.9c-.2 0-.3 0-.5-.1l-6.9-4c-.4-.3-.6-.8-.3-1.3.3-.4.8-.6 1.3-.3l6.9 4c.4.3.6.8.3 1.3-.2.3-.5.4-.8.4z"></path>
    <path opacity=".44" d="M11.1 33.9c-.3 0-.6-.2-.8-.5-.3-.4-.1-1 .3-1.3l6.9-4c.4-.3 1-.1 1.3.3.3.4.1 1-.3 1.3l-6.9 4c-.1.2-.3.2-.5.2z"></path>
    <path opacity=".3" d="M31.9 21.9c-.3 0-.6-.2-.8-.5-.3-.4-.1-1 .3-1.3l6.9-4c.4-.3 1-.1 1.3.3.3.4.1 1-.3 1.3l-6.9 4c-.2.2-.3.2-.5.2z"></path>
  </symbol>

  <symbol viewBox="0 0 50 50" id="icon-previous" fill="#ffffff">
    <path d="M27.3 34.7L17.6 25l9.7-9.7 1.4 1.4-8.3 8.3 8.3 8.3z"></path>
  </symbol>

  <symbol viewBox="0 0 50 50" id="icon-next" fill="#ffffff">
    <path d="M22.7 34.7l-1.4-1.4 8.3-8.3-8.3-8.3 1.4-1.4 9.7 9.7z"></path>
  </symbol>

  <symbol viewBox="0 0 50 50" id="icon-instagram" fill="#878a8d">
    <path fill-rule="evenodd" clip-rule="evenodd" d="M35 23h-2.3c.2.6.3 1.3.3 2 0 4.4-3.6 8-8 8s-8-3.6-8-8c0-.7.1-1.4.3-2H15v11c0 .6.4 1 1 1h18c.6 0 1-.4 1-1V23zm0-7c0-.6-.4-1-1-1h-3c-.6 0-1 .4-1 1v3c0 .6.4 1 1 1h3c.6 0 1-.4 1-1v-3zm-10 4c-2.8 0-5 2.2-5 5s2.2 5 5 5 5-2.2 5-5-2.2-5-5-5m10 18H15c-1.7 0-3-1.3-3-3V15c0-1.7 1.3-3 3-3h20c1.7 0 3 1.3 3 3v20c0 1.7-1.3 3-3 3"></path>
  </symbol>

  <symbol viewBox="0 0 50 50" id="icon-twitter" fill="#878a8d">
    <path d="M39.2 16.8c-1.1.5-2.2.8-3.5 1 1.2-.8 2.2-1.9 2.7-3.3-1.2.7-2.5 1.2-3.8 1.5-1.1-1.2-2.7-1.9-4.4-1.9-3.3 0-6.1 2.7-6.1 6.1 0 .5.1.9.2 1.4-5-.2-9.5-2.7-12.5-6.3-.5.7-.8 1.7-.8 2.8 0 2.1 1.1 4 2.7 5-1 0-1.9-.3-2.7-.8v.1c0 2.9 2.1 5.4 4.9 5.9-.5.1-1 .2-1.6.2-.4 0-.8 0-1.1-.1.8 2.4 3 4.2 5.7 4.2-2.1 1.6-4.7 2.6-7.5 2.6-.5 0-1 0-1.4-.1 2.4 1.9 5.6 2.9 9 2.9 11.1 0 17.2-9.2 17.2-17.2V20c1.2-.9 2.2-1.9 3-3.2z"></path>
  </symbol>

  <symbol viewBox="0 0 50 50" id="icon-play" fill="#d7dadd">
    <path d="M25 42c-9.4 0-17-7.6-17-17S15.6 8 25 8s17 7.6 17 17-7.6 17-17 17zm0-32c-8.3 0-15 6.7-15 15s6.7 15 15 15 15-6.7 15-15-6.7-15-15-15z"></path>
    <path d="M20 33.7V16.3L35 25l-15 8.7zm2-14v10.5l9-5.3-9-5.2z"></path>
  </symbol>

  <symbol viewBox="0 0 50 50" id="icon-retweet" fill="#878a8d">
    <path d="M38 35h-2V17c0-.6-.4-1-1-1H18v-2h17c1.7 0 3 1.3 3 3v18z"></path>
    <path d="M37 36.5l-6.8-7.8 1.6-1.4 5.2 6.2 5.2-6.2 1.6 1.4z"></path>
    <path d="M32 36H15c-1.7 0-3-1.3-3-3V15h2v18c0 .6.4 1 1 1h17v2z"></path>
    <path d="M18.2 22.7L13 16.5l-5.2 6.2-1.6-1.4 6.8-7.8 6.8 7.8z"></path>
  </symbol>
</svg>
